# Blender v2.78 (sub 0) OBJ File: 'Book.blend'
# www.blender.org
mtllib Book.mtl
o Cube
v -0.005533 0.000000 -1.000000
v -1.000000 0.000000 -1.000000
v -0.005533 0.000000 1.000000
v -1.000000 0.000000 1.000000
v -0.005533 2.502893 -1.000000
v -1.000000 2.502893 -1.000000
v -0.005533 2.502893 1.000000
v -1.000000 2.502893 1.000000
v -0.161530 0.053941 -0.960127
v -0.146192 0.000000 1.000000
v -0.161530 2.448952 -0.960127
v -0.146192 2.502893 1.000000
v -0.842536 0.053941 -0.960127
v -0.842536 2.448952 -0.960127
v -0.857874 0.000000 1.000000
v -0.857874 2.502893 1.000000
v -0.005533 0.000000 0.850143
v -1.000000 0.000000 0.850143
v -0.005533 2.502893 0.850143
v -1.000000 2.502893 0.850143
v -0.161530 2.448952 0.810270
v -0.161530 0.053941 0.810270
v -0.842536 0.053941 0.810270
v -0.842536 2.448952 0.810270
vt 0.5661 0.8589
vt 0.5973 0.5000
vt 0.5973 0.8678
vt 0.3982 0.5298
vt 0.3670 0.8908
vt 0.3670 0.5388
vt 0.0000 1.0000
vt 0.0315 0.5108
vt 0.0315 0.9892
vt 0.4004 0.5000
vt 0.4304 0.0000
vt 0.4304 0.5000
vt 0.0000 0.5000
vt 0.3704 0.0000
vt 0.3704 0.5000
vt 0.8009 0.5000
vt 0.8290 0.0000
vt 0.8290 0.5000
vt 0.9715 0.0000
vt 0.9715 0.5000
vt 0.1679 0.9892
vt 0.1991 0.5000
vt 0.1991 1.0000
vt 0.2306 0.8908
vt 0.2306 0.5388
vt 0.4297 0.5069
vt 0.4297 0.8589
vt 0.3982 0.5000
vt 0.3982 0.8678
vt 0.1991 0.8976
vt 0.1991 0.5298
vt 1.0000 0.0000
vt 1.0000 0.5000
vt 0.1679 0.5108
vt 0.2276 0.5000
vt 0.1991 0.5000
vt 0.4267 0.8976
vt 0.3982 0.8976
vt 0.5692 0.8976
vt 0.3701 0.5000
vt 0.4004 0.0000
vt 0.4004 0.5000
vt 0.8009 0.0000
vt 0.8009 0.5000
vt 0.5973 0.8976
vt 0.5661 0.5069
vt 0.3982 0.8976
vt 0.0000 0.5000
vt 0.4004 0.0000
vt 0.0000 0.0000
vt 0.8009 0.0000
vt 0.3982 0.5000
vn -0.3268 -0.9451 0.0000
vn -0.3268 0.9451 0.0000
vn 0.2455 0.0000 -0.9694
vn -1.0000 0.0000 0.0000
vn 1.0000 0.0000 0.0000
vn 0.0000 0.0000 1.0000
vn -0.2476 0.0000 -0.9689
vn 0.0000 1.0000 0.0000
vn 0.0000 -1.0000 0.0000
vn 0.3241 -0.9460 0.0000
vn 0.3241 0.9460 0.0000
vn 0.0000 0.0000 -1.0000
vn 0.0000 -0.9619 -0.2735
vn 0.0000 0.9619 -0.2735
vn -0.2605 0.9340 -0.2445
vn 0.2581 0.9346 -0.2448
vn 0.2581 -0.9346 -0.2448
vn -0.2605 -0.9340 -0.2445
usemtl Material.001
s off
f 22/1/1 1/2/1 17/3/1
f 19/4/2 11/5/2 21/6/2
f 2/7/3 14/8/3 13/9/3
f 4/10/4 20/11/4 18/12/4
f 1/13/5 19/14/5 17/15/5
f 3/16/6 12/17/6 10/18/6
f 10/18/6 16/19/6 15/20/6
f 9/21/7 5/22/7 1/23/7
f 21/6/8 14/24/8 24/25/8
f 13/26/9 22/1/9 23/27/9
f 2/28/10 23/27/10 18/29/10
f 24/25/11 6/30/11 20/31/11
f 15/20/6 8/32/6 4/33/6
f 13/9/12 11/34/12 9/21/12
f 16/35/8 20/31/8 8/36/8
f 18/29/9 15/37/9 4/38/9
f 15/37/13 22/1/13 10/39/13
f 12/40/14 24/25/14 16/35/14
f 17/15/5 7/41/5 3/42/5
f 18/12/4 6/43/4 2/44/4
f 12/40/15 19/4/15 21/6/15
f 10/39/9 17/3/9 3/45/9
f 22/1/1 9/46/1 1/2/1
f 19/4/2 5/47/2 11/5/2
f 2/7/3 6/48/3 14/8/3
f 4/10/4 8/49/4 20/11/4
f 1/13/5 5/50/5 19/14/5
f 3/16/6 7/51/6 12/17/6
f 10/18/6 12/17/6 16/19/6
f 9/21/7 11/34/7 5/22/7
f 21/6/8 11/5/8 14/24/8
f 13/26/9 9/46/9 22/1/9
f 2/28/10 13/26/10 23/27/10
f 24/25/11 14/24/11 6/30/11
f 15/20/6 16/19/6 8/32/6
f 13/9/12 14/8/12 11/34/12
f 16/35/16 24/25/16 20/31/16
f 18/29/17 23/27/17 15/37/17
f 15/37/13 23/27/13 22/1/13
f 12/40/14 21/6/14 24/25/14
f 17/15/5 19/14/5 7/41/5
f 18/12/4 20/11/4 6/43/4
f 12/40/8 7/52/8 19/4/8
f 10/39/18 22/1/18 17/3/18
