# Blender v2.78 (sub 0) OBJ File: ''
# www.blender.org
mtllib cube.mtl
o Cube
v 1.000000 1.000000 -1.000000
v 1.000000 -1.000000 -1.000000
v 1.000000 1.000000 1.000000
v 1.000000 -1.000000 1.000000
v -1.000000 1.000000 -1.000000
v -1.000000 -1.000000 -1.000000
v -1.000000 1.000000 1.000000
v -1.000000 -1.000000 1.000000
vt 0.9983 0.3317
vt 0.6683 0.3317
vt 0.6683 0.0017
vt 0.9983 0.0017
vt 0.6650 0.3317
vt 0.3350 0.3317
vt 0.3350 0.0017
vt 0.6650 0.0017
vt 0.3317 0.6683
vt 0.3317 0.9983
vt 0.0017 0.9983
vt 0.0017 0.6683
vt 0.3317 0.3317
vt 0.0017 0.3317
vt 0.0017 0.0017
vt 0.3317 0.0017
vt 0.3317 0.6650
vt 0.0017 0.6650
vt 0.0017 0.3350
vt 0.3317 0.3350
vt 0.3350 0.6650
vt 0.3350 0.3350
vt 0.6650 0.3350
vt 0.6650 0.6650
vn 0.0000 -1.0000 0.0000
vn -1.0000 0.0000 0.0000
vn 0.0000 1.0000 0.0000
vn 1.0000 0.0000 0.0000
vn 0.0000 0.0000 -1.0000
vn 0.0000 0.0000 1.0000
usemtl Material
s off
f 6/1/1 2/2/1 4/3/1 8/4/1
f 8/5/2 7/6/2 5/7/2 6/8/2
f 1/9/3 5/10/3 7/11/3 3/12/3
f 2/13/4 1/14/4 3/15/4 4/16/4
f 6/17/5 5/18/5 1/19/5 2/20/5
f 4/21/6 3/22/6 7/23/6 8/24/6
