 # Blender v2.78 (sub 0) OBJ File: 'ico.blend'
# www.blender.org
mtllib ico.mtl
o Cube
v -0.723607 0.447220 0.525725
v 0.276388 0.447220 0.850649
v 0.723607 -0.447220 -0.525725
v -0.276388 -0.447220 -0.850649
v -0.894426 -0.447216 0.000000
v -0.276388 -0.447220 0.850649
v 0.723607 -0.447220 0.525725
v 0.000000 -1.000000 0.000000
v -0.723607 0.447220 -0.525725
v 0.276388 0.447220 -0.850649
v 0.894426 0.447216 0.000000
v 0.000000 1.000000 0.000000
v 0.951058 0.000000 -0.309013
v 0.951058 0.000000 0.309013
v 0.262869 -0.525738 -0.809012
v -0.688189 -0.525736 -0.499997
v -0.162456 -0.850654 -0.499995
v -0.688189 -0.525736 0.499997
v -0.525730 -0.850652 0.000000
v 0.425323 -0.850654 -0.309011
v 0.850648 -0.525736 0.000000
v 0.262869 -0.525738 0.809012
v 0.425323 -0.850654 0.309011
v -0.162456 -0.850654 0.499995
v 0.000000 0.000000 1.000000
v 0.587786 0.000000 0.809017
v -0.951058 0.000000 0.309013
v -0.587786 0.000000 0.809017
v -0.587786 0.000000 -0.809017
v -0.951058 0.000000 -0.309013
v 0.587786 0.000000 -0.809017
v 0.000000 0.000000 -1.000000
v 0.688189 0.525736 0.499997
v -0.262869 0.525738 0.809012
v -0.850648 0.525736 0.000000
v -0.262869 0.525738 -0.809012
v 0.688189 0.525736 -0.499997
v 0.162456 0.850654 0.499995
v 0.525730 0.850652 0.000000
v -0.425323 0.850654 0.309011
v -0.425323 0.850654 -0.309011
v 0.162456 0.850654 -0.499995
vt 0.2487 0.8441
vt 0.2039 1.0000
vt 0.1191 0.8576
vt 0.1939 0.6807
vt 0.3250 0.7138
vt 0.1273 0.5432
vt 0.0477 0.6807
vt 0.0171 0.5369
vt 0.3311 0.9111
vt 0.4436 0.4429
vt 0.4045 0.5369
vt 0.3354 0.3710
vt 0.6616 0.2684
vt 0.5590 0.3710
vt 0.5590 0.1659
vt 0.7514 0.1536
vt 0.8813 0.1465
vt 0.8020 0.3196
vt 0.1082 0.4429
vt 0.0000 0.3710
vt 0.0955 0.2684
vt 0.7973 0.9972
vt 0.7142 0.8637
vt 0.8603 0.8565
vt 0.4309 0.2684
vt 0.6708 0.1025
vt 0.6719 0.2800
vt 0.2236 0.3710
vt 0.9108 0.6905
vt 0.7810 0.6834
vt 0.8620 0.5369
vt 0.6623 0.8441
vt 0.6046 1.0000
vt 0.5432 0.8576
vt 0.5350 0.5432
vt 0.6145 0.6807
vt 0.4684 0.6807
vt 0.1082 0.0940
vt 0.0691 0.0000
vt 0.2073 0.0000
vt 0.3262 0.2684
vt 0.2236 0.1659
vt 0.3354 0.1025
vt 0.3311 0.9111
vt 0.3373 0.7138
vt 0.4136 0.8441
vt 0.4086 0.5369
vt 0.4584 1.0000
vt 0.9915 0.6194
vt 0.7159 0.5441
vt 0.6623 0.7028
vt 0.0000 0.1659
vt 0.7386 0.4603
vt 0.8650 0.4603
vt 0.6452 0.5369
vt 0.5427 0.0000
vt 0.4436 0.0940
vt 0.3354 0.1659
vt 0.9904 0.8169
vt 0.6708 0.0825
vt 0.9481 0.3268
vt 1.0000 0.1659
vt 0.9237 0.9972
vt 0.8003 0.0000
vt 0.9463 0.0072
vt 0.0000 0.8441
vt 0.6708 0.4344
vt 0.5427 0.5369
vt 0.3354 0.4344
vt 0.2073 0.5369
vt 0.2537 0.5369
vt 0.0577 1.0000
vn 0.1024 -0.9435 -0.3151
vn 0.1024 -0.9435 0.3151
vn 0.9050 -0.3304 0.2680
vn -0.2680 -0.9435 0.1947
vn 0.7002 -0.6617 0.2680
vn -0.2680 -0.9435 -0.1947
vn 0.0247 -0.3304 0.9435
vn -0.8897 -0.3304 0.3151
vn -0.5746 -0.3304 -0.7488
vn 0.5346 -0.3304 -0.7779
vn 0.8026 -0.1256 0.5831
vn -0.3066 -0.1256 0.9435
vn -0.9921 -0.1256 0.0000
vn -0.3066 -0.1256 -0.9435
vn 0.8026 -0.1256 -0.5831
vn 0.4089 0.6617 0.6284
vn -0.4713 0.6617 0.5831
vn -0.7002 0.6617 -0.2680
vn 0.0385 0.6617 -0.7488
vn 0.7240 0.6617 -0.1947
vn 0.2680 0.9435 -0.1947
vn 0.4911 0.7947 -0.3568
vn 0.4089 0.6617 -0.6284
vn -0.1024 0.9435 -0.3151
vn -0.1876 0.7947 -0.5773
vn -0.4713 0.6617 -0.5831
vn -0.3313 0.9435 0.0000
vn -0.6071 0.7947 0.0000
vn -0.7002 0.6617 0.2680
vn -0.1024 0.9435 0.3151
vn -0.1876 0.7947 0.5773
vn 0.0385 0.6617 0.7488
vn 0.2680 0.9435 0.1947
vn 0.4911 0.7947 0.3568
vn 0.7240 0.6617 0.1947
vn 0.8897 0.3304 -0.3151
vn 0.7947 0.1876 -0.5773
vn 0.5746 0.3304 -0.7488
vn -0.0247 0.3304 -0.9435
vn -0.3035 0.1876 -0.9342
vn -0.5346 0.3304 -0.7779
vn -0.9050 0.3304 -0.2680
vn -0.9822 0.1876 0.0000
vn -0.9050 0.3304 0.2680
vn -0.5346 0.3304 0.7779
vn -0.3035 0.1876 0.9342
vn -0.0247 0.3304 0.9435
vn 0.5746 0.3304 0.7488
vn 0.7947 0.1876 0.5773
vn 0.8897 0.3304 0.3151
vn 0.3066 0.1256 -0.9435
vn 0.3035 -0.1876 -0.9342
vn 0.0247 -0.3304 -0.9435
vn -0.8026 0.1256 -0.5831
vn -0.7947 -0.1876 -0.5773
vn -0.8897 -0.3304 -0.3151
vn -0.8026 0.1256 0.5831
vn -0.7947 -0.1876 0.5773
vn -0.5746 -0.3304 0.7488
vn 0.3066 0.1256 0.9435
vn 0.3035 -0.1876 0.9342
vn 0.5346 -0.3304 0.7779
vn -0.4089 -0.6617 -0.6284
vn -0.4911 -0.7947 -0.3568
vn -0.7240 -0.6617 -0.1947
vn 0.7002 -0.6617 -0.2680
vn 0.6071 -0.7947 0.0000
vn 0.3313 -0.9435 0.0000
vn -0.7240 -0.6617 0.1947
vn -0.4911 -0.7947 0.3568
vn -0.4089 -0.6617 0.6284
vn 0.9921 0.1256 0.0000
vn 0.9822 -0.1876 0.0000
vn 0.9050 -0.3304 -0.2680
vn -0.0385 -0.6617 0.7488
vn 0.1876 -0.7947 0.5773
vn 0.4713 -0.6617 0.5831
vn 0.4713 -0.6617 -0.5831
vn 0.1876 -0.7947 -0.5773
vn -0.0385 -0.6617 -0.7488
usemtl Material.001
s off
f 8/1/1 17/2/1 20/3/1
f 8/1/2 23/4/2 24/5/2
f 7/6/3 21/7/3 14/8/3
f 8/1/4 24/5/4 19/9/4
f 7/6/5 23/4/5 21/7/5
f 8/1/6 19/9/6 17/2/6
f 6/10/7 22/11/7 25/12/7
f 5/13/8 18/14/8 27/15/8
f 4/16/9 16/17/9 29/18/9
f 3/19/10 15/20/10 31/21/10
f 7/22/11 14/23/11 26/24/11
f 6/10/12 25/12/12 28/25/12
f 5/13/13 27/15/13 30/26/13
f 4/16/14 29/18/14 32/27/14
f 3/19/15 31/21/15 13/28/15
f 2/29/16 33/30/16 38/31/16
f 1/32/17 34/33/17 40/34/17
f 9/35/18 35/36/18 41/37/18
f 10/38/19 36/39/19 42/40/19
f 11/41/20 37/42/20 39/43/20
f 39/44/21 42/45/21 12/46/21
f 39/43/22 37/42/22 42/40/22
f 37/42/23 10/38/23 42/40/23
f 42/45/24 41/37/24 12/46/24
f 42/45/25 36/47/25 41/37/25
f 36/47/26 9/35/26 41/37/26
f 41/37/27 40/34/27 12/46/27
f 41/37/28 35/36/28 40/34/28
f 35/36/29 1/32/29 40/34/29
f 40/34/30 38/48/30 12/46/30
f 40/34/31 34/33/31 38/48/31
f 34/49/32 2/29/32 38/31/32
f 38/48/33 39/44/33 12/46/33
f 38/31/34 33/30/34 39/50/34
f 33/30/35 11/51/35 39/50/35
f 13/28/36 37/42/36 11/41/36
f 13/28/37 31/21/37 37/42/37
f 31/21/38 10/38/38 37/42/38
f 32/52/39 36/39/39 10/38/39
f 32/27/40 29/18/40 36/53/40
f 29/18/41 9/54/41 36/53/41
f 30/55/42 35/36/42 9/35/42
f 30/26/43 27/15/43 35/56/43
f 27/15/44 1/57/44 35/56/44
f 28/25/45 34/58/45 1/57/45
f 28/25/46 25/12/46 34/58/46
f 25/59/47 2/29/47 34/49/47
f 26/24/48 33/30/48 2/29/48
f 26/24/49 14/23/49 33/30/49
f 14/23/50 11/51/50 33/30/50
f 31/21/51 32/52/51 10/38/51
f 31/21/52 15/20/52 32/52/52
f 15/60/53 4/16/53 32/27/53
f 29/18/54 30/61/54 9/54/54
f 29/18/55 16/17/55 30/61/55
f 16/17/56 5/62/56 30/61/56
f 27/15/57 28/25/57 1/57/57
f 27/15/58 18/14/58 28/25/58
f 18/14/59 6/10/59 28/25/59
f 25/59/60 26/24/60 2/29/60
f 25/59/61 22/63/61 26/24/61
f 22/63/62 7/22/62 26/24/62
f 17/64/63 16/17/63 4/16/63
f 17/64/64 19/65/64 16/17/64
f 19/65/65 5/62/65 16/17/65
f 21/7/66 20/3/66 3/66/66
f 21/7/67 23/4/67 20/3/67
f 23/4/68 8/1/68 20/3/68
f 19/67/69 18/14/69 5/13/69
f 19/67/70 24/68/70 18/14/70
f 24/68/71 6/10/71 18/14/71
f 14/69/72 13/28/72 11/41/72
f 14/69/73 21/70/73 13/28/73
f 21/70/74 3/19/74 13/28/74
f 24/68/75 22/11/75 6/10/75
f 24/5/76 23/4/76 22/71/76
f 23/4/77 7/6/77 22/71/77
f 20/3/78 15/72/78 3/66/78
f 20/3/79 17/2/79 15/72/79
f 17/64/80 4/16/80 15/60/80
